<?xml version="1.0"?>
<svg xmlns="http://www.w3.org/2000/svg" xmlns:android="http://schemas.android.com/apk/res/android" width="24dp" height="24dp" viewportWidth="24" viewportHeight="24">
	<path fill="#000000" d="M18.545 0.544998H5.455L0 9.273L2.182 23.455H6.068L5.795 20.182H7.704L7.977 23.455H16.022L16.295 20.182H18.204L17.931 23.455H21.817L24 9.273L18.545 0.544998ZM18.545 18H5.455L4.364 9.273L6.546 4.909H10.052L9.818 6.545H14.182L13.948 4.909H17.454L19.636 9.273L18.545 18ZM15.545 11.045C15.846 11.045 16.09 11.953 16.09 13.074C16.09 14.195 15.846 15.103 15.545 15.103C15.244 15.103 15 14.195 15 13.074C15 11.954 15.244 11.045 15.545 11.045ZM8.659 11.215C8.96 11.215 9.204 12.123 9.204 13.244C9.204 14.365 8.96 15.273 8.659 15.273C8.358 15.273 8.114 14.365 8.114 13.244C8.114 12.123 8.358 11.215 8.659 11.215Z"/>
</svg>
