<?xml version="1.0"?>
<svg xmlns="http://www.w3.org/2000/svg" xmlns:android="http://schemas.android.com/apk/res/android" width="24dp" height="24dp" viewportWidth="24" viewportHeight="24">
	<path fill="#3498DB" d="M6.92497 1.3125C6.27678 1.31387 5.64228 1.68181 5.31597 2.24311L0.240916 11.0591C-0.0803053 11.6219 -0.0803053 12.3575 0.240916 12.9203L5.31597 21.7362C5.64231 22.2975 6.27678 22.6656 6.92497 22.6668H17.075C17.7232 22.6655 18.3577 22.2975 18.684 21.7362L23.7591 12.9203C24.0803 12.3575 24.0803 11.6219 23.7591 11.0591L18.684 2.24311C18.3577 1.68181 17.7232 1.31377 17.075 1.3125H6.92497ZM7.01708 6.46993C7.03102 6.46856 7.04565 6.46856 7.05963 6.46993H8.81037C8.88787 6.47154 8.96304 6.51632 9.00174 6.58359L11.9717 11.876C11.9866 11.9022 11.9962 11.9313 11.9999 11.9612C12.0035 11.9313 12.0132 11.9022 12.0281 11.876L14.9909 6.58359C15.0309 6.51428 15.1096 6.46925 15.1894 6.46993H16.9401C17.0951 6.47131 17.2112 6.66657 17.1386 6.80382L14.2396 11.9897L17.1386 17.1684C17.2181 17.3064 17.0992 17.5108 16.9401 17.5094H15.1894C15.1082 17.5087 15.029 17.4606 14.9909 17.3886L12.0281 12.0962C12.0132 12.0701 12.0035 12.0409 11.9999 12.011C11.9962 12.0409 11.9866 12.0701 11.9717 12.0962L9.00174 17.3886C8.9648 17.4585 8.88923 17.5062 8.81037 17.5094H7.05963C6.90058 17.5108 6.78166 17.3064 6.86119 17.1684L9.76018 11.9897L6.86119 6.80382C6.79169 6.6786 6.87648 6.49666 7.01708 6.46993Z"/>
</svg>
