<?xml version="1.0"?>
<svg xmlns="http://www.w3.org/2000/svg" xmlns:android="http://schemas.android.com/apk/res/android" width="24dp" height="24dp" viewportWidth="24" viewportHeight="24">
	<path fill="#3880FF" d="M12.0142 0.00011115C13.9621 0.00011115 15.7962 0.455199 17.5166 1.33672L17.7441 1.45046L17.545 1.60686C17.0616 1.99074 16.6777 2.48837 16.436 3.0571L16.3649 3.21349L16.2227 3.1424C14.9005 2.51681 13.4929 2.1898 12.0284 2.1898C6.61137 2.1898 2.21801 6.59738 2.21801 12.0002C2.21801 17.4031 6.59716 21.8106 12.0142 21.8106C17.4313 21.8106 21.8246 17.4031 21.8246 12.0002C21.8246 10.7064 21.5829 9.44098 21.0711 8.24667L21 8.09027L21.1564 8.01918C21.7393 7.80591 22.2512 7.45046 22.6635 6.99548L22.8199 6.79643L22.9194 7.02392C23.6446 8.60212 24 10.2798 24 11.9718C24 18.5832 18.6114 23.9718 12 23.9718C5.38863 23.9718 0 18.5832 0 11.9718C0 5.36041 5.38863 -0.0282128 12.0142 0.00011115ZM12.0142 6.54051C15.0142 6.54051 17.4739 8.986 17.4882 12.0144C17.4882 15.0429 15.0427 17.4884 12.0142 17.4884C8.98578 17.4884 6.54028 15.0429 6.54028 12.0144C6.54028 8.986 9 6.54051 12.0142 6.54051ZM19.8483 2.01918C21.2304 2.01918 22.3507 3.13953 22.3507 4.52155C22.3507 5.90357 21.2304 7.02392 19.8483 7.02392C18.4663 7.02392 17.346 5.90357 17.346 4.52155C17.346 3.13953 18.4663 2.01918 19.8483 2.01918Z"/>
</svg>
