<?xml version="1.0"?>
<svg xmlns="http://www.w3.org/2000/svg" xmlns:android="http://schemas.android.com/apk/res/android" width="24dp" height="24dp" viewportWidth="24" viewportHeight="24">
	<path fill="#A4C639" fill-rule="evenOdd" d="M4.58732 7.91391H19.4127V18.2777C19.4127 18.8934 18.8309 19.3926 18.114 19.3926H16.6291V22.5489C16.6291 23.3504 15.8838 24 14.9639 24C14.0416 24 13.2974 23.3504 13.2974 22.5489V19.3926H10.7039V22.5489C10.7039 23.3504 9.95717 24 9.03728 24C8.11755 24 7.37088 23.3504 7.37088 22.5489V19.3926H5.88723C5.17024 19.3926 4.58727 18.8934 4.58727 18.2777V7.91391H4.58732ZM1.68206 7.82932C0.752746 7.82932 0 8.48511 0 9.29468V15.0217C0 15.8303 0.752746 16.4872 1.68206 16.4872C2.61153 16.4872 3.36412 15.8303 3.36412 15.0217V9.29468C3.36412 8.48511 2.61153 7.82932 1.68206 7.82932ZM19.4128 6.86955H4.58732C4.77029 5.05767 6.14039 3.49847 8.11273 2.59568L6.70316 0.82015C6.51307 0.580714 6.58479 0.254014 6.86445 0.0909922C7.14378 -0.0720292 7.52385 -0.0100332 7.71487 0.229215L9.25118 2.16575C10.103 1.91307 11.0276 1.76799 12 1.76799C12.9736 1.76799 13.8983 1.91307 14.75 2.16607L16.2863 0.22992C16.475 -0.00998625 16.8563 -0.0719823 17.1356 0.0910391C17.4153 0.254061 17.487 0.580761 17.2969 0.820197L15.8885 2.59573C17.8608 3.49796 19.2299 5.05716 19.4128 6.86955ZM9.69317 4.40761C9.69317 4.01905 9.32641 3.70391 8.87363 3.70391C8.41971 3.70391 8.05294 4.01905 8.05294 4.40761C8.05294 4.79598 8.42091 5.11098 8.87363 5.11098C9.32635 5.11098 9.69317 4.79598 9.69317 4.40761ZM16.051 4.40761C16.051 4.01905 15.683 3.70391 15.2303 3.70391C14.7764 3.70391 14.4107 4.01905 14.4107 4.40761C14.4107 4.79598 14.7764 5.11098 15.2303 5.11098C15.6831 5.11098 16.051 4.79598 16.051 4.40761ZM22.3191 7.8273C21.3908 7.8273 20.6359 8.48408 20.6359 9.29369V15.0227C20.6359 15.8323 21.3908 16.4893 22.3191 16.4893C23.2487 16.4893 24 15.8324 24 15.0227V9.29369C24.0001 8.48408 23.2487 7.8273 22.3191 7.8273Z"/>
</svg>
