<svg xmlns="http://www.w3.org/2000/svg" xmlns:android="http://schemas.android.com/apk/res/android" viewBox="0 0 24 24" viewportWidth="24" viewportHeight="24">
	<path fill="@color/white" d="M20,3H4C2.9,3 2,3.9 2,5v14c0,1.1 0.9,2 2,2h16c1.1,0 2,-0.9 2,-2V5C22,3.9 21.1,3 20,3zM20,19H4V5h16V19z" fill-rule="evenOdd"/>
	<path fill="@color/white" d="M19.41,10.42l-1.42,-1.42l-3.17,3.17l-1.41,-1.42l-1.41,1.41l2.82,2.84z" fill-rule="evenOdd"/>
	<path fill="@color/white" d="M5,7h5v2h-5z" fill-rule="evenOdd"/>
	<path fill="@color/white" d="M5,11h5v2h-5z" fill-rule="evenOdd"/>
	<path fill="@color/white" d="M5,15h5v2h-5z" fill-rule="evenOdd"/>
</svg>