<?xml version="1.0"?>
<svg xmlns="http://www.w3.org/2000/svg" xmlns:android="http://schemas.android.com/apk/res/android" width="24dp" height="12dp" viewportWidth="24" viewportHeight="12">
	<path fill="#000000" d="M1.1 0.0500031C0.486 0.0500031 0.000000015881 0.530003 0.000000015881 1.13C-0.0000245964 1.27353 0.0285591 1.41562 0.0840806 1.54797C0.139602 1.68033 0.220948 1.80028 0.323363 1.90084C0.425778 2.00139 0.547208 2.08052 0.680557 2.13361C0.813906 2.18669 0.956498 2.21266 1.1 2.21C1.72 2.21 2.21 1.73 2.21 1.13C2.21 0.530003 1.72 0.0500031 1.1 0.0500031ZM8.71 0.070003C5.35 0.070003 3.25 2.36 3.25 6C3.25 9.67 5.35 11.95 8.71 11.95C12.05 11.95 14.16 9.67 14.16 6C14.16 2.36 12.05 0.070003 8.71 0.070003ZM19.55 0.070003C17.05 0.070003 15.27 1.45 15.27 3.5C15.27 5.13 16.28 6.15 18.4 6.64L19.89 7C21.34 7.33 21.93 7.81 21.93 8.64C21.93 9.6 20.96 10.28 19.58 10.28C18.17 10.28 17.11 9.59 17 8.53H15C15.08 10.65 16.82 11.95 19.46 11.95C22.25 11.95 24 10.58 24 8.4C24 6.69 23 5.72 20.68 5.19L19.35 4.89C17.94 4.55 17.36 4.1 17.36 3.34C17.36 2.38 18.24 1.74 19.54 1.74C20.85 1.74 21.75 2.39 21.85 3.46H23.81C23.76 1.44 22.09 0.070003 19.55 0.070003ZM8.71 1.82C10.75 1.82 12.06 3.45 12.06 6C12.06 8.57 10.75 10.2 8.71 10.2C6.65 10.2 5.35 8.57 5.35 6C5.35 3.45 6.65 1.82 8.71 1.82ZM0.111 3.31V11.76H2.1V3.31H0.11H0.111Z"/>
</svg>
